<?xml version="1.0" encoding="UTF-8" standalone="no"?>
<!-- Created with Inkscape (http://www.inkscape.org/) -->

<svg
   xmlns:dc="http://purl.org/dc/elements/1.1/"
   xmlns:cc="http://creativecommons.org/ns#"
   xmlns:rdf="http://www.w3.org/1999/02/22-rdf-syntax-ns#"
   xmlns:svg="http://www.w3.org/2000/svg"
   xmlns="http://www.w3.org/2000/svg"
   xmlns:sodipodi="http://sodipodi.sourceforge.net/DTD/sodipodi-0.dtd"
   xmlns:inkscape="http://www.inkscape.org/namespaces/inkscape"
   width="165.75049mm"
   height="44.026676mm"
   viewBox="0 0 165.75049 44.026676"
   version="1.1"
   id="svg2329"
   inkscape:version="0.92.0 r15299"
   sodipodi:docname="logo-light.svg">
  <defs
     id="defs2323" />
  <sodipodi:namedview
     id="base"
     pagecolor="#ffffff"
     bordercolor="#666666"
     borderopacity="1.0"
     inkscape:pageopacity="0.0"
     inkscape:pageshadow="2"
     inkscape:zoom="1.979899"
     inkscape:cx="264.71667"
     inkscape:cy="96.117483"
     inkscape:document-units="mm"
     inkscape:current-layer="layer1"
     showgrid="false"
     fit-margin-top="0"
     fit-margin-left="0"
     fit-margin-right="0"
     fit-margin-bottom="0"
     inkscape:window-width="2560"
     inkscape:window-height="1017"
     inkscape:window-x="-8"
     inkscape:window-y="-8"
     inkscape:window-maximized="1" />
  <metadata
     id="metadata2326">
    <rdf:RDF>
      <cc:Work
         rdf:about="">
        <dc:format>image/svg+xml</dc:format>
        <dc:type
           rdf:resource="http://purl.org/dc/dcmitype/StillImage" />
        <dc:title></dc:title>
      </cc:Work>
    </rdf:RDF>
  </metadata>
  <g
     inkscape:label="Layer 1"
     inkscape:groupmode="layer"
     id="layer1"
     transform="translate(-219.50571,-320.34381)">
    <g
       aria-label="BOzon"
       style="font-style:normal;font-variant:normal;font-weight:500;font-stretch:normal;font-size:35.55115128px;line-height:125%;font-family:MorganBig;-inkscape-font-specification:'MorganBig Medium';text-align:center;letter-spacing:0px;word-spacing:0px;writing-mode:lr-tb;text-anchor:middle;opacity:0.15;fill:#000000;fill-opacity:1;stroke:none;stroke-width:0.28222224"
       id="text4208">
      <path
         d="m 240.26759,349.85407 v -2.52414 c 0,-2.31082 -0.88878,-3.80397 -3.66177,-4.44389 v -0.21331 c 2.23972,-0.46216 3.62622,-1.35094 3.62622,-4.51499 v -2.38193 c 0,-3.69732 -2.31083,-5.15492 -5.93705,-5.15492 h -14.78927 v 24.6014 h 14.54042 c 3.37736,0 6.22145,-0.85323 6.22145,-5.36822 z m -4.69275,-10.772 c 0,1.20874 -0.46217,1.742 -1.91977,1.742 h -9.3855 v -6.22145 h 8.95889 c 1.49315,0 2.34638,0.42662 2.34638,1.63536 z m 0,10.23873 c 0,1.31539 -0.53327,1.91976 -2.20418,1.91976 h -9.10109 v -6.50586 h 9.06554 c 1.74201,0 2.23973,0.53327 2.23973,1.6709 z"
         style="font-style:normal;font-variant:normal;font-weight:500;font-stretch:normal;font-size:35.55115128px;line-height:125%;font-family:MorganBig;-inkscape-font-specification:'MorganBig Medium';text-align:start;writing-mode:lr-tb;text-anchor:start;fill:#000000;stroke-width:0.28222224"
         id="path2940" />
      <path
         d="m 264.6329,347.36549 v -8.88779 c 0,-6.1859 -5.01271,-8.28342 -10.38093,-8.28342 -5.43933,0 -10.38094,2.02642 -10.38094,8.21232 v 8.99444 c 0,6.1859 5.22602,8.24786 10.38094,8.24786 5.68818,0 10.38093,-2.09751 10.38093,-8.28341 z m -4.7283,0.17775 c 0,2.95075 -2.52413,4.23059 -5.65263,4.23059 -4.01728,0 -5.65264,-1.31539 -5.65264,-4.30169 v -9.1011 c 0,-3.48401 2.27528,-4.30168 5.65264,-4.30168 2.48858,0 5.65263,0.88877 5.65263,4.23058 z"
         style="font-style:normal;font-variant:normal;font-weight:500;font-stretch:normal;font-size:35.55115128px;line-height:125%;font-family:MorganBig;-inkscape-font-specification:'MorganBig Medium';text-align:start;writing-mode:lr-tb;text-anchor:start;fill:#000000;stroke-width:0.28222224"
         id="path2942" />
      <path
         d="m 287.43563,355.22229 v -3.98173 h -13.26058 l 13.15393,-17.49117 v -3.1285 h -19.05542 v 3.98173 h 13.04727 l -13.08282,17.42007 v 3.1996 z"
         style="font-style:normal;font-variant:normal;font-weight:500;font-stretch:normal;font-size:35.55115128px;line-height:125%;font-family:MorganBig;-inkscape-font-specification:'MorganBig Medium';text-align:start;writing-mode:lr-tb;text-anchor:start;fill:#000000;stroke-width:0.28222224"
         id="path2944" />
      <path
         d="m 311.84928,347.36549 v -8.88779 c 0,-6.1859 -5.01272,-8.28342 -10.38094,-8.28342 -5.43933,0 -10.38094,2.02642 -10.38094,8.21232 v 8.99444 c 0,6.1859 5.22602,8.24786 10.38094,8.24786 5.68818,0 10.38094,-2.09751 10.38094,-8.28341 z m -4.72831,0.17775 c 0,2.95075 -2.52413,4.23059 -5.65263,4.23059 -4.01728,0 -5.65263,-1.31539 -5.65263,-4.30169 v -9.1011 c 0,-3.48401 2.27527,-4.30168 5.65263,-4.30168 2.48858,0 5.65263,0.88877 5.65263,4.23058 z"
         style="font-style:normal;font-variant:normal;font-weight:500;font-stretch:normal;font-size:35.55115128px;line-height:125%;font-family:MorganBig;-inkscape-font-specification:'MorganBig Medium';text-align:start;writing-mode:lr-tb;text-anchor:start;fill:#000000;stroke-width:0.28222224"
         id="path2946" />
      <path
         d="m 336.71398,355.22229 v -17.1001 c 0,-5.79484 -5.04827,-7.92791 -10.38094,-7.92791 -5.43933,0 -10.38094,2.06197 -10.38094,7.99901 v 17.029 h 4.72831 v -17.17121 c 0,-2.80854 1.99086,-3.98172 5.61708,-3.98172 2.73744,0 5.68818,1.17318 5.68818,3.91062 v 17.24231 z"
         style="font-style:normal;font-variant:normal;font-weight:500;font-stretch:normal;font-size:35.55115128px;line-height:125%;font-family:MorganBig;-inkscape-font-specification:'MorganBig Medium';text-align:start;writing-mode:lr-tb;text-anchor:start;fill:#000000;stroke-width:0.28222224"
         id="path2948" />
    </g>
    <g
       aria-label="BOzon"
       style="font-style:normal;font-variant:normal;font-weight:500;font-stretch:normal;font-size:35.55115128px;line-height:125%;font-family:MorganBig;-inkscape-font-specification:'MorganBig Medium';text-align:center;letter-spacing:0px;word-spacing:0px;writing-mode:lr-tb;text-anchor:middle;fill:#4d4d4d;fill-opacity:1;stroke:none;stroke-width:0.28222224"
       id="text4020">
      <path
         d="m 240.26759,348.72516 v -2.52413 c 0,-2.31083 -0.88878,-3.80397 -3.66177,-4.4439 v -0.2133 c 2.23972,-0.46217 3.62622,-1.35095 3.62622,-4.515 v -2.38193 c 0,-3.69732 -2.31083,-5.15491 -5.93705,-5.15491 h -14.78927 v 24.60139 h 14.54042 c 3.37736,0 6.22145,-0.85322 6.22145,-5.36822 z m -4.69275,-10.772 c 0,1.20874 -0.46217,1.74201 -1.91977,1.74201 h -9.3855 v -6.22145 h 8.95889 c 1.49315,0 2.34638,0.42661 2.34638,1.63535 z m 0,10.23873 c 0,1.3154 -0.53327,1.91976 -2.20418,1.91976 h -9.10109 v -6.50586 h 9.06554 c 1.74201,0 2.23973,0.53327 2.23973,1.67091 z"
         style="font-style:normal;font-variant:normal;font-weight:500;font-stretch:normal;font-size:35.55115128px;line-height:125%;font-family:MorganBig;-inkscape-font-specification:'MorganBig Medium';text-align:start;writing-mode:lr-tb;text-anchor:start;fill:#ffffff;stroke-width:0.28222224"
         id="path2951" />
      <path
         d="m 264.6329,346.23658 v -8.88779 c 0,-6.1859 -5.01271,-8.28342 -10.38093,-8.28342 -5.43933,0 -10.38094,2.02642 -10.38094,8.21232 v 8.99444 c 0,6.1859 5.22602,8.24787 10.38094,8.24787 5.68818,0 10.38093,-2.09752 10.38093,-8.28342 z m -4.7283,0.17776 c 0,2.95074 -2.52413,4.23058 -5.65263,4.23058 -4.01728,0 -5.65264,-1.31539 -5.65264,-4.30169 v -9.10109 c 0,-3.48401 2.27528,-4.30169 5.65264,-4.30169 2.48858,0 5.65263,0.88878 5.65263,4.23059 z"
         style="font-style:normal;font-variant:normal;font-weight:500;font-stretch:normal;font-size:35.55115128px;line-height:125%;font-family:MorganBig;-inkscape-font-specification:'MorganBig Medium';text-align:start;writing-mode:lr-tb;text-anchor:start;fill:#ffffff;stroke-width:0.28222224"
         id="path2953" />
      <path
         d="m 287.43563,354.09338 v -3.98173 h -13.26058 l 13.15393,-17.49116 v -3.1285 h -19.05542 v 3.98173 h 13.04727 l -13.08282,17.42006 v 3.1996 z"
         style="font-style:normal;font-variant:normal;font-weight:500;font-stretch:normal;font-size:35.55115128px;line-height:125%;font-family:MorganBig;-inkscape-font-specification:'MorganBig Medium';text-align:start;writing-mode:lr-tb;text-anchor:start;fill:#ffffff;stroke-width:0.28222224"
         id="path2955" />
      <path
         d="m 311.84928,346.23658 v -8.88779 c 0,-6.1859 -5.01272,-8.28342 -10.38094,-8.28342 -5.43933,0 -10.38094,2.02642 -10.38094,8.21232 v 8.99444 c 0,6.1859 5.22602,8.24787 10.38094,8.24787 5.68818,0 10.38094,-2.09752 10.38094,-8.28342 z m -4.72831,0.17776 c 0,2.95074 -2.52413,4.23058 -5.65263,4.23058 -4.01728,0 -5.65263,-1.31539 -5.65263,-4.30169 v -9.10109 c 0,-3.48401 2.27527,-4.30169 5.65263,-4.30169 2.48858,0 5.65263,0.88878 5.65263,4.23059 z"
         style="font-style:normal;font-variant:normal;font-weight:500;font-stretch:normal;font-size:35.55115128px;line-height:125%;font-family:MorganBig;-inkscape-font-specification:'MorganBig Medium';text-align:start;writing-mode:lr-tb;text-anchor:start;fill:#ffffff;stroke-width:0.28222224"
         id="path2957" />
      <path
         d="m 336.71398,354.09338 v -17.1001 c 0,-5.79484 -5.04827,-7.92791 -10.38094,-7.92791 -5.43933,0 -10.38094,2.06197 -10.38094,7.99901 v 17.029 h 4.72831 v -17.1712 c 0,-2.80854 1.99086,-3.98173 5.61708,-3.98173 2.73744,0 5.68818,1.17319 5.68818,3.91063 v 17.2423 z"
         style="font-style:normal;font-variant:normal;font-weight:500;font-stretch:normal;font-size:35.55115128px;line-height:125%;font-family:MorganBig;-inkscape-font-specification:'MorganBig Medium';text-align:start;writing-mode:lr-tb;text-anchor:start;fill:#ffffff;stroke-width:0.28222224"
         id="path2959" />
    </g>
    <path
       style="opacity:0.15;fill:#000000;fill-opacity:1;stroke:none;stroke-width:0.28222224"
       d="m 385.2562,342.9216 a 21.448889,21.448889 0 0 1 -21.44889,21.44889 21.448889,21.448889 0 0 1 -21.44889,-21.44889 21.448889,21.448889 0 0 1 21.44889,-21.44889 21.448889,21.448889 0 0 1 21.44889,21.44889 z"
       id="circle4212" />
    <path
       style="fill:#37c8ab;fill-opacity:1;stroke:none;stroke-width:0.28222224"
       d="m 385.2562,341.79269 a 21.448889,21.448889 0 0 1 -21.44889,21.44889 21.448889,21.448889 0 0 1 -21.44889,-21.44889 21.448889,21.448889 0 0 1 21.44889,-21.44888 21.448889,21.448889 0 0 1 21.44889,21.44888 z"
       id="circle4038" />
    <g
       aria-label="3"
       style="font-style:normal;font-variant:normal;font-weight:500;font-stretch:normal;font-size:18.93005371px;line-height:125%;font-family:MorganBig;-inkscape-font-specification:'MorganBig Medium';text-align:center;letter-spacing:0px;word-spacing:0px;writing-mode:lr-tb;text-anchor:middle;opacity:0.15;fill:#000000;fill-opacity:1;stroke:none;stroke-width:0.28222224"
       id="text4040">
      <path
         d="m 368.65664,346.85128 v -1.47655 c 0,-1.07901 -0.28395,-1.81728 -1.9498,-2.23374 v -0.11358 c 1.19259,-0.26502 1.91194,-0.71934 1.91194,-2.40412 v -1.26831 c 0,-1.96873 -1.23046,-2.82058 -3.16132,-2.82058 h -6.94733 l -0.17037,0.17037 v 1.9498 h 6.62552 c 0.79506,0 1.19259,0.13251 1.19259,1.00329 v 1.26831 c 0,0.81399 -0.39753,1.07901 -1.17366,1.07901 h -5.05433 v 2.1391 h 5.14898 c 0.92757,0 1.07901,0.28395 1.07901,1.07901 v 1.13581 c 0,0.96543 -0.15144,1.30617 -1.04115,1.30617 h -6.87161 v 1.96873 l 0.15144,0.15144 h 6.96626 c 1.79835,0 3.29383,-0.53004 3.29383,-2.93416 z"
         style="font-style:normal;font-variant:normal;font-weight:500;font-stretch:normal;font-size:18.93005371px;line-height:125%;font-family:MorganBig;-inkscape-font-specification:'MorganBig Medium';text-align:center;writing-mode:lr-tb;text-anchor:middle;fill:#000000;stroke-width:0.28222224"
         id="path2964" />
    </g>
    <g
       aria-label="3"
       style="font-style:normal;font-variant:normal;font-weight:500;font-stretch:normal;font-size:18.93005371px;line-height:125%;font-family:MorganBig;-inkscape-font-specification:'MorganBig Medium';text-align:center;letter-spacing:0px;word-spacing:0px;writing-mode:lr-tb;text-anchor:middle;fill:#000000;fill-opacity:1;stroke:none;stroke-width:0.28222224"
       id="text4044">
      <path
         d="m 368.65664,345.72237 v -1.47654 c 0,-1.07901 -0.28395,-1.81729 -1.9498,-2.23375 v -0.11358 c 1.19259,-0.26502 1.91194,-0.71934 1.91194,-2.40412 v -1.26831 c 0,-1.96872 -1.23046,-2.82058 -3.16132,-2.82058 h -6.94733 l -0.17037,0.17037 v 1.9498 h 6.62552 c 0.79506,0 1.19259,0.13251 1.19259,1.00329 v 1.26832 c 0,0.81399 -0.39753,1.07901 -1.17366,1.07901 h -5.05433 v 2.13909 h 5.14898 c 0.92757,0 1.07901,0.28396 1.07901,1.07902 v 1.1358 c 0,0.96543 -0.15144,1.30617 -1.04115,1.30617 h -6.87161 v 1.96873 l 0.15144,0.15144 h 6.96626 c 1.79835,0 3.29383,-0.53004 3.29383,-2.93416 z"
         style="font-style:normal;font-variant:normal;font-weight:500;font-stretch:normal;font-size:18.93005371px;line-height:125%;font-family:MorganBig;-inkscape-font-specification:'MorganBig Medium';text-align:center;writing-mode:lr-tb;text-anchor:middle;fill:#ffffff;stroke-width:0.28222224"
         id="path2967" />
    </g>
  </g>
</svg>
